<svg version="1.1" id="Layer_1" xmlns="http://www.w3.org/2000/svg" xmlns:xlink="http://www.w3.org/1999/xlink" x="0px" y="0px"
	 width="100%" viewBox="0 0 352 304" enable-background="new 0 0 352 304" xml:space="preserve">
<path fill="#000000" opacity="1.000000" stroke="none" 
	d="
M234.865067,237.594604 
	C236.113312,242.777420 233.116760,244.542847 228.804001,245.436554 
	C232.575607,247.379440 232.575607,247.379440 239.870163,241.956696 
	C242.236816,245.454575 240.109390,247.449478 237.525894,249.124710 
	C235.646576,250.343338 233.387390,250.302841 231.217804,250.315475 
	C218.720505,250.388336 206.222885,250.502472 193.725754,250.468353 
	C187.522217,250.451416 184.204590,246.812027 185.155838,241.104797 
	C188.829895,241.417816 189.620285,248.054260 194.932449,245.290512 
	C190.969727,242.819702 189.982224,238.959625 190.017166,234.850952 
	C190.050552,230.923264 189.649872,226.812744 192.665878,223.508530 
	C193.892014,222.165237 193.613907,220.380203 193.644165,218.726807 
	C193.869598,206.405807 193.238800,194.062790 194.599823,181.771133 
	C194.845428,179.552994 194.498016,177.295700 193.526505,175.427597 
	C188.778015,166.296738 183.351181,157.564697 177.244980,148.258362 
	C173.448486,152.997864 170.018021,157.211502 166.664108,161.485184 
	C162.654419,166.594482 158.689560,171.739365 154.744095,176.898514 
	C151.519897,181.114548 147.661575,182.825836 142.132950,181.740143 
	C129.070831,179.174988 115.907166,177.129593 102.793633,174.822418 
	C96.302818,173.680435 90.456497,176.644333 87.777245,182.570236 
	C86.816429,184.695312 85.861778,186.823227 84.909943,188.952347 
	C83.758308,191.528351 82.285530,193.778702 78.978729,193.195145 
	C75.710815,192.618454 74.090340,190.594055 74.333275,187.185013 
	C74.364662,186.744629 74.100525,186.283188 73.951172,185.753036 
	C71.377678,188.576782 71.377678,188.576782 75.051880,196.945404 
	C72.279114,198.560028 70.726837,196.776138 69.513741,194.821289 
	C68.060143,192.478897 67.809471,189.807343 68.288887,187.092468 
	C70.429962,174.967590 72.560493,162.840820 74.733932,150.721741 
	C75.245270,147.870514 76.317574,145.229843 78.769592,143.483337 
	C80.678864,142.123428 82.741730,141.083832 84.939911,142.935532 
	C84.810760,145.926071 81.960793,145.498535 80.719200,146.901047 
	C79.443901,148.341660 78.869576,149.921219 78.918579,152.320831 
	C86.873215,146.546219 93.950218,149.479111 101.287308,152.989487 
	C106.728615,155.592834 112.989616,155.221085 118.855690,156.338943 
	C124.244225,157.365753 129.753540,157.793182 135.107147,158.956436 
	C138.507782,159.695343 140.491394,158.617737 142.100052,155.826050 
	C147.838760,145.867126 153.814224,136.039246 159.325104,125.956833 
	C161.826614,121.380211 164.537201,117.026863 168.049362,113.227135 
	C178.788132,101.609093 183.615402,87.124443 188.672913,72.015793 
	C183.369934,72.015793 178.633820,71.938667 173.901962,72.046906 
	C171.371201,72.104790 170.830231,74.231163 170.233887,76.169739 
	C167.590439,84.763023 164.902954,93.343102 162.321640,101.955002 
	C161.213379,105.652405 159.051025,107.656410 155.035202,107.221848 
	C151.137222,106.800049 149.137604,104.669495 150.114624,100.791275 
	C153.366394,87.883644 156.783737,75.017365 160.197327,62.151070 
	C161.372406,57.722065 164.814117,56.250324 168.942413,56.106087 
	C175.602509,55.873375 182.269943,55.857487 188.931534,55.658298 
	C195.087616,55.474220 201.243515,55.232109 207.392822,54.894012 
	C210.905396,54.700886 213.489273,55.841507 215.207809,59.049519 
	C217.498672,63.325939 221.115906,66.247368 225.533005,68.104485 
	C227.964401,69.126732 229.132858,70.699608 229.357956,73.356918 
	C230.269547,84.118500 231.506393,94.855820 232.228821,105.628532 
	C232.518127,109.942657 233.726410,112.238167 238.408295,112.941170 
	C247.450989,114.298965 256.403229,116.267685 265.382660,118.035370 
	C271.560608,119.251556 273.528809,121.334465 272.963470,125.864403 
	C272.312744,131.078262 269.732849,132.751846 263.105560,132.041092 
	C251.856125,130.834595 240.618607,129.517288 229.369812,128.304520 
	C222.484879,127.562218 220.336227,125.728844 218.889221,119.084442 
	C218.467773,117.149300 218.053955,115.212486 217.381195,112.091316 
	C213.087784,117.816071 209.782578,123.144836 205.565353,127.612755 
	C200.306183,133.184601 199.317215,138.503952 204.052673,144.685440 
	C204.648224,145.462860 204.922424,146.480484 205.387436,147.364761 
	C221.782623,178.542603 216.806030,166.331161 214.562988,201.534332 
	C214.150345,208.010666 213.355804,214.461792 212.823212,220.931625 
	C212.436737,225.626221 217.252853,231.278336 222.393509,232.601105 
	C226.650223,233.696426 231.493958,233.318436 234.865067,237.594604 
M74.518913,177.305069 
	C74.598038,178.303421 73.713150,179.702301 76.205315,180.063187 
	C77.491402,172.461365 79.221642,164.958435 78.986771,157.151764 
	C76.058228,163.314346 75.657661,170.001923 74.518913,177.305069 
M223.507706,245.201981 
	C223.694519,244.944946 223.910446,244.702530 224.051132,244.422333 
	C224.095642,244.333710 223.939758,244.018982 223.874466,244.018646 
	C220.090546,243.998886 216.306519,244.001450 212.522491,244.001602 
	C208.758240,244.001740 204.993988,244.001633 201.229736,244.001633 
	C201.246719,244.420731 201.263702,244.839813 201.280701,245.258911 
	C208.481964,246.103256 215.713409,245.839050 223.507706,245.201981 
z"/>
<path fill="#000000" opacity="1.000000" stroke="none" 
	d="
M217.407272,55.320175 
	C211.877060,42.495876 216.443176,30.518156 228.373932,25.713985 
	C238.407913,21.673595 250.007645,26.288342 254.877640,36.258022 
	C259.696991,46.124027 256.066254,57.964828 246.510086,63.546879 
	C237.237671,68.963203 224.965729,66.420654 218.865555,57.803894 
	C218.386795,57.127602 218.018982,56.372746 217.407272,55.320175 
z"/>
</svg>